# xmcd
#
# Track frame offsets:
#	150
#	11527
#	39390
#	43355
#	86757
#	128382
#	158185
#	171377
#	190185
#
# Disc length: 2942 seconds
# Revision: 5
# Processed by: cddbd v1.5.2PL0 Copyright (c) Steve Scherf et al.
# Submitted via: dBpowerAMP V12.0
#
DISCID=6e0b7c09
DTITLE=Rolf Schimmermann - B&W Present ~ Suru すろ [dBP-LITE-1-FLAC@]
DYEAR=1993
DGENRE=Jazz
TTITLE0=Ainat Part One
TTITLE1=Ainat Part Two
TTITLE2=Passages Part One
TTITLE3=Passages Part Two
TTITLE4=Traces
TTITLE5=Take Six
TTITLE6=Endless Longing Part One
TTITLE7=Endless Longing Part Two
TTITLE8=Pole Star
EXTD=
EXTT0=
EXTT1=
EXTT2=
EXTT3=
EXTT4=
EXTT5=
EXTT6=
EXTT7=
EXTT8=
PLAYORDER=
